<svg xmlns="http://www.w3.org/2000/svg" viewBox="0 0 512 512"><defs><radialGradient id="b"><stop stop-color="#4d387a"/><stop offset="1" stop-color="#21152e"/></radialGradient></defs><rect width="512" height="512" rx="112" fill="url(#b)"/><circle cx="256" cy="253" r="170" fill="#a98bff" opacity=".13"/><g transform="translate(103,99) scale(3.8)"><path d="M12 36 10 7 32 18Q40 14 48 18L71 7 69 38Q79 67 40 76Q1 65 12 36" fill="#f7ad6e"/><path d="m17 27-1-11 13 8M54 24l11-9-1 14" fill="#8b4561"/><path d="M9 46Q26 56 36 44Q40 54 46 44Q56 54 71 44Q76 65 40 74Q13 67 9 46" fill="#ffebd0"/><circle cx="26" cy="40" r="13" fill="none" stroke="#614573" stroke-width="4"/><circle cx="54" cy="40" r="13" fill="none" stroke="#614573" stroke-width="4"/><path d="M38 38h5" stroke="#614573" stroke-width="4"/><ellipse cx="28" cy="40" rx="3" ry="5" fill="#392733"/><ellipse cx="52" cy="40" rx="3" ry="5" fill="#392733"/><circle cx="27" cy="38" r="1" fill="white"/><circle cx="51" cy="38" r="1" fill="white"/><path d="M36 55q4-3 8 0-1 6-4 6-4-1-4-6" fill="#54313e"/><path d="M33 62q7 7 14 0" fill="none" stroke="#81484e" stroke-width="2" stroke-linecap="round"/></g><path d="m407 94 6 18 18 6-18 6-6 18-6-18-18-6 18-6Z" fill="#ffdb83"/><circle cx="104" cy="384" r="7" fill="#a1f6d5"/></svg>